<mxfile host="app.diagrams.net" agent="Mozilla/5.0 (Macintosh; Intel Mac OS X 10_15_7) AppleWebKit/537.36 (KHTML, like Gecko) Chrome/136.0.0.0 Safari/537.36 Edg/136.0.0.0" version="26.2.13">
  <diagram name="Page-1" id="zulWGweN_5HcDzil0AHg">
    <mxGraphModel dx="797" dy="1044" grid="1" gridSize="10" guides="1" tooltips="1" connect="1" arrows="1" fold="1" page="1" pageScale="1" pageWidth="669" pageHeight="709" math="0" shadow="0">
      <root>
        <mxCell id="0" />
        <mxCell id="1" parent="0" />
        <mxCell id="dZDPK4GAm-LJGT4-wQQH-2" value="" style="rounded=0;whiteSpace=wrap;html=1;" vertex="1" parent="1">
          <mxGeometry x="40" y="40" width="400" height="640" as="geometry" />
        </mxCell>
        <mxCell id="dZDPK4GAm-LJGT4-wQQH-3" value="1" style="rounded=1;whiteSpace=wrap;html=1;rotation=-90;" vertex="1" parent="1">
          <mxGeometry x="70" y="54.5" width="70" height="45" as="geometry" />
        </mxCell>
        <mxCell id="dZDPK4GAm-LJGT4-wQQH-5" value="" style="endArrow=none;html=1;rounded=0;strokeWidth=3;entryX=0.288;entryY=0.002;entryDx=0;entryDy=0;entryPerimeter=0;" edge="1" parent="1">
          <mxGeometry width="50" height="50" relative="1" as="geometry">
            <mxPoint x="140" y="560" as="sourcePoint" />
            <mxPoint x="140.00000000000006" y="41.27999999999997" as="targetPoint" />
          </mxGeometry>
        </mxCell>
        <mxCell id="dZDPK4GAm-LJGT4-wQQH-6" value="" style="endArrow=none;html=1;rounded=0;strokeWidth=3;entryX=0.288;entryY=0.002;entryDx=0;entryDy=0;entryPerimeter=0;exitX=0.298;exitY=0.998;exitDx=0;exitDy=0;exitPerimeter=0;" edge="1" parent="1">
          <mxGeometry width="50" height="50" relative="1" as="geometry">
            <mxPoint x="338" y="678" as="sourcePoint" />
            <mxPoint x="334" y="40" as="targetPoint" />
          </mxGeometry>
        </mxCell>
        <mxCell id="dZDPK4GAm-LJGT4-wQQH-7" value="2" style="rounded=1;whiteSpace=wrap;html=1;rotation=-90;" vertex="1" parent="1">
          <mxGeometry x="70" y="126" width="70" height="45" as="geometry" />
        </mxCell>
        <mxCell id="dZDPK4GAm-LJGT4-wQQH-8" value="3" style="rounded=1;whiteSpace=wrap;html=1;rotation=-90;" vertex="1" parent="1">
          <mxGeometry x="70" y="197" width="70" height="45" as="geometry" />
        </mxCell>
        <mxCell id="dZDPK4GAm-LJGT4-wQQH-9" value="4" style="rounded=1;whiteSpace=wrap;html=1;rotation=-90;" vertex="1" parent="1">
          <mxGeometry x="70" y="268.5" width="70" height="45" as="geometry" />
        </mxCell>
        <mxCell id="dZDPK4GAm-LJGT4-wQQH-10" value="5" style="rounded=1;whiteSpace=wrap;html=1;rotation=-90;" vertex="1" parent="1">
          <mxGeometry x="70" y="340" width="70" height="45" as="geometry" />
        </mxCell>
        <mxCell id="dZDPK4GAm-LJGT4-wQQH-11" value="6" style="rounded=1;whiteSpace=wrap;html=1;rotation=-90;" vertex="1" parent="1">
          <mxGeometry x="70" y="411.5" width="70" height="45" as="geometry" />
        </mxCell>
        <mxCell id="dZDPK4GAm-LJGT4-wQQH-14" value="1" style="rounded=1;whiteSpace=wrap;html=1;rotation=-90;" vertex="1" parent="1">
          <mxGeometry x="349" y="180" width="70" height="69.5" as="geometry" />
        </mxCell>
        <mxCell id="dZDPK4GAm-LJGT4-wQQH-22" value="" style="endArrow=none;html=1;rounded=0;strokeWidth=3;entryX=0;entryY=0.81;entryDx=0;entryDy=0;entryPerimeter=0;" edge="1" parent="1" target="dZDPK4GAm-LJGT4-wQQH-2">
          <mxGeometry width="50" height="50" relative="1" as="geometry">
            <mxPoint x="140" y="558" as="sourcePoint" />
            <mxPoint x="170.00000000000006" y="51.27999999999997" as="targetPoint" />
          </mxGeometry>
        </mxCell>
        <mxCell id="dZDPK4GAm-LJGT4-wQQH-23" value="2" style="rounded=1;whiteSpace=wrap;html=1;rotation=-90;" vertex="1" parent="1">
          <mxGeometry x="349" y="251.5" width="70" height="69.5" as="geometry" />
        </mxCell>
        <mxCell id="dZDPK4GAm-LJGT4-wQQH-24" value="3" style="rounded=1;whiteSpace=wrap;html=1;rotation=-90;" vertex="1" parent="1">
          <mxGeometry x="349" y="322.5" width="70" height="69.5" as="geometry" />
        </mxCell>
        <mxCell id="dZDPK4GAm-LJGT4-wQQH-25" value="4" style="rounded=1;whiteSpace=wrap;html=1;rotation=-90;" vertex="1" parent="1">
          <mxGeometry x="349" y="394" width="70" height="69.5" as="geometry" />
        </mxCell>
        <mxCell id="dZDPK4GAm-LJGT4-wQQH-26" value="6" style="rounded=1;whiteSpace=wrap;html=1;rotation=-90;" vertex="1" parent="1">
          <mxGeometry x="349" y="537" width="70" height="69.5" as="geometry" />
        </mxCell>
        <mxCell id="dZDPK4GAm-LJGT4-wQQH-27" value="5" style="rounded=1;whiteSpace=wrap;html=1;rotation=-90;" vertex="1" parent="1">
          <mxGeometry x="349" y="465.5" width="70" height="69.5" as="geometry" />
        </mxCell>
        <mxCell id="dZDPK4GAm-LJGT4-wQQH-28" value="7" style="rounded=1;whiteSpace=wrap;html=1;rotation=-90;" vertex="1" parent="1">
          <mxGeometry x="349" y="608.5" width="70" height="69.5" as="geometry" />
        </mxCell>
        <mxCell id="dZDPK4GAm-LJGT4-wQQH-39" value="" style="group" vertex="1" connectable="0" parent="1">
          <mxGeometry x="349" y="50.01" width="48.51" height="80" as="geometry" />
        </mxCell>
        <mxCell id="dZDPK4GAm-LJGT4-wQQH-34" value="" style="rounded=0;whiteSpace=wrap;html=1;rotation=90;" vertex="1" parent="dZDPK4GAm-LJGT4-wQQH-39">
          <mxGeometry x="22.152428942602945" y="24.267589388696656" width="38.19384300448784" height="13.198615916955017" as="geometry" />
        </mxCell>
        <mxCell id="dZDPK4GAm-LJGT4-wQQH-29" value="" style="rounded=0;whiteSpace=wrap;html=1;rotation=90;" vertex="1" parent="dZDPK4GAm-LJGT4-wQQH-39">
          <mxGeometry x="-4.010353515471223" y="28.143021914648212" width="64.35662546256201" height="5.905420991926182" as="geometry" />
        </mxCell>
        <mxCell id="dZDPK4GAm-LJGT4-wQQH-32" value="" style="rounded=0;whiteSpace=wrap;html=1;rotation=90;" vertex="1" parent="dZDPK4GAm-LJGT4-wQQH-39">
          <mxGeometry x="-22.9163058026927" y="22.702652825836214" width="64.35662546256201" height="16.79354094579008" as="geometry" />
        </mxCell>
        <mxCell id="dZDPK4GAm-LJGT4-wQQH-33" value="" style="rounded=0;whiteSpace=wrap;html=1;rotation=90;" vertex="1" parent="dZDPK4GAm-LJGT4-wQQH-39">
          <mxGeometry x="32.182132115581446" y="23.0717416378316" width="15.277537201795134" height="16.79354094579008" as="geometry" />
        </mxCell>
        <mxCell id="dZDPK4GAm-LJGT4-wQQH-38" value="" style="group" vertex="1" connectable="0" parent="dZDPK4GAm-LJGT4-wQQH-39">
          <mxGeometry y="68.92733564013841" width="18.333044642154164" height="11.072664359861593" as="geometry" />
        </mxCell>
        <mxCell id="dZDPK4GAm-LJGT4-wQQH-36" value="" style="rounded=1;whiteSpace=wrap;html=1;" vertex="1" parent="dZDPK4GAm-LJGT4-wQQH-38">
          <mxGeometry width="18.333044642154164" height="11.072664359861593" as="geometry" />
        </mxCell>
        <mxCell id="dZDPK4GAm-LJGT4-wQQH-35" value="" style="ellipse;whiteSpace=wrap;html=1;" vertex="1" parent="dZDPK4GAm-LJGT4-wQQH-38">
          <mxGeometry x="10.694276041256597" y="2.952710495963091" width="7.638768600897569" height="5.167243367935409" as="geometry" />
        </mxCell>
        <mxCell id="dZDPK4GAm-LJGT4-wQQH-53" value="" style="group" vertex="1" connectable="0" parent="1">
          <mxGeometry x="40" y="580.01" width="99.99000000000001" height="99.99000000000001" as="geometry" />
        </mxCell>
        <mxCell id="dZDPK4GAm-LJGT4-wQQH-52" value="" style="whiteSpace=wrap;html=1;aspect=fixed;" vertex="1" parent="dZDPK4GAm-LJGT4-wQQH-53">
          <mxGeometry width="99.99" height="99.99" as="geometry" />
        </mxCell>
        <mxCell id="dZDPK4GAm-LJGT4-wQQH-50" value="" style="rounded=1;whiteSpace=wrap;html=1;" vertex="1" parent="dZDPK4GAm-LJGT4-wQQH-53">
          <mxGeometry x="1" y="0.9900000000000091" width="98" height="98.01" as="geometry" />
        </mxCell>
        <mxCell id="dZDPK4GAm-LJGT4-wQQH-54" value="" style="ellipse;whiteSpace=wrap;html=1;aspect=fixed;" vertex="1" parent="dZDPK4GAm-LJGT4-wQQH-53">
          <mxGeometry x="1" y="19.990000000000002" width="9.99" height="9.99" as="geometry" />
        </mxCell>
        <mxCell id="dZDPK4GAm-LJGT4-wQQH-55" value="" style="ellipse;whiteSpace=wrap;html=1;aspect=fixed;" vertex="1" parent="dZDPK4GAm-LJGT4-wQQH-53">
          <mxGeometry x="1" y="69.99000000000001" width="9.99" height="9.99" as="geometry" />
        </mxCell>
        <mxCell id="dZDPK4GAm-LJGT4-wQQH-51" value="" style="rounded=0;whiteSpace=wrap;html=1;" vertex="1" parent="1">
          <mxGeometry x="40" y="620" width="40" height="20.88" as="geometry" />
        </mxCell>
        <mxCell id="dZDPK4GAm-LJGT4-wQQH-56" value="" style="group;rotation=-180;" vertex="1" connectable="0" parent="1">
          <mxGeometry x="80.74000000000001" y="470" width="48.51" height="80" as="geometry" />
        </mxCell>
        <mxCell id="dZDPK4GAm-LJGT4-wQQH-57" value="" style="rounded=0;whiteSpace=wrap;html=1;rotation=-90;" vertex="1" parent="dZDPK4GAm-LJGT4-wQQH-56">
          <mxGeometry x="-12" y="42" width="38.19384300448784" height="13.198615916955017" as="geometry" />
        </mxCell>
        <mxCell id="dZDPK4GAm-LJGT4-wQQH-58" value="" style="rounded=0;whiteSpace=wrap;html=1;rotation=-90;" vertex="1" parent="dZDPK4GAm-LJGT4-wQQH-56">
          <mxGeometry x="-12" y="46" width="64.35662546256201" height="5.905420991926182" as="geometry" />
        </mxCell>
        <mxCell id="dZDPK4GAm-LJGT4-wQQH-59" value="" style="rounded=0;whiteSpace=wrap;html=1;rotation=-90;" vertex="1" parent="dZDPK4GAm-LJGT4-wQQH-56">
          <mxGeometry x="7" y="41" width="64.35662546256201" height="16.79354094579008" as="geometry" />
        </mxCell>
        <mxCell id="dZDPK4GAm-LJGT4-wQQH-60" value="" style="rounded=0;whiteSpace=wrap;html=1;rotation=-90;" vertex="1" parent="dZDPK4GAm-LJGT4-wQQH-56">
          <mxGeometry x="1" y="40" width="15.277537201795134" height="16.79354094579008" as="geometry" />
        </mxCell>
        <mxCell id="dZDPK4GAm-LJGT4-wQQH-61" value="" style="group;rotation=-180;" vertex="1" connectable="0" parent="dZDPK4GAm-LJGT4-wQQH-56">
          <mxGeometry x="30" width="18.333044642154164" height="11.072664359861593" as="geometry" />
        </mxCell>
        <mxCell id="dZDPK4GAm-LJGT4-wQQH-62" value="" style="rounded=1;whiteSpace=wrap;html=1;rotation=-180;" vertex="1" parent="dZDPK4GAm-LJGT4-wQQH-61">
          <mxGeometry width="18.333044642154164" height="11.072664359861593" as="geometry" />
        </mxCell>
        <mxCell id="dZDPK4GAm-LJGT4-wQQH-63" value="" style="ellipse;whiteSpace=wrap;html=1;rotation=-180;" vertex="1" parent="dZDPK4GAm-LJGT4-wQQH-61">
          <mxGeometry y="3" width="7.638768600897569" height="5.167243367935409" as="geometry" />
        </mxCell>
        <mxCell id="dZDPK4GAm-LJGT4-wQQH-68" value="" style="group" vertex="1" connectable="0" parent="1">
          <mxGeometry x="40" y="525" width="40" height="30" as="geometry" />
        </mxCell>
        <mxCell id="dZDPK4GAm-LJGT4-wQQH-65" value="" style="rounded=0;whiteSpace=wrap;html=1;" vertex="1" parent="dZDPK4GAm-LJGT4-wQQH-68">
          <mxGeometry width="40" height="30" as="geometry" />
        </mxCell>
        <mxCell id="dZDPK4GAm-LJGT4-wQQH-66" value="" style="ellipse;whiteSpace=wrap;html=1;" vertex="1" parent="dZDPK4GAm-LJGT4-wQQH-68">
          <mxGeometry x="1.0909090909090908" y="0.5" width="29.090909090909093" height="29" as="geometry" />
        </mxCell>
        <mxCell id="dZDPK4GAm-LJGT4-wQQH-67" value="" style="rounded=1;whiteSpace=wrap;html=1;" vertex="1" parent="dZDPK4GAm-LJGT4-wQQH-68">
          <mxGeometry x="31.636363636363637" y="0.5" width="7.272727272727273" height="29" as="geometry" />
        </mxCell>
        <mxCell id="dZDPK4GAm-LJGT4-wQQH-69" value="" style="rounded=0;whiteSpace=wrap;html=1;" vertex="1" parent="1">
          <mxGeometry x="40" y="730" width="400" height="640" as="geometry" />
        </mxCell>
        <mxCell id="dZDPK4GAm-LJGT4-wQQH-70" value="1" style="rounded=1;whiteSpace=wrap;html=1;rotation=-90;" vertex="1" parent="1">
          <mxGeometry x="70" y="744.5" width="70" height="45" as="geometry" />
        </mxCell>
        <mxCell id="dZDPK4GAm-LJGT4-wQQH-71" value="" style="endArrow=none;html=1;rounded=0;strokeWidth=3;entryX=0.288;entryY=0.002;entryDx=0;entryDy=0;entryPerimeter=0;" edge="1" parent="1">
          <mxGeometry width="50" height="50" relative="1" as="geometry">
            <mxPoint x="140" y="1250" as="sourcePoint" />
            <mxPoint x="140.00000000000006" y="731.28" as="targetPoint" />
          </mxGeometry>
        </mxCell>
        <mxCell id="dZDPK4GAm-LJGT4-wQQH-72" value="" style="endArrow=none;html=1;rounded=0;strokeWidth=3;entryX=0.288;entryY=0.002;entryDx=0;entryDy=0;entryPerimeter=0;exitX=0.298;exitY=0.998;exitDx=0;exitDy=0;exitPerimeter=0;" edge="1" parent="1">
          <mxGeometry width="50" height="50" relative="1" as="geometry">
            <mxPoint x="338" y="1368" as="sourcePoint" />
            <mxPoint x="334" y="730" as="targetPoint" />
          </mxGeometry>
        </mxCell>
        <mxCell id="dZDPK4GAm-LJGT4-wQQH-73" value="2" style="rounded=1;whiteSpace=wrap;html=1;rotation=-90;" vertex="1" parent="1">
          <mxGeometry x="70" y="820" width="70" height="45" as="geometry" />
        </mxCell>
        <mxCell id="dZDPK4GAm-LJGT4-wQQH-74" value="3" style="rounded=1;whiteSpace=wrap;html=1;rotation=-90;" vertex="1" parent="1">
          <mxGeometry x="70" y="895" width="70" height="45" as="geometry" />
        </mxCell>
        <mxCell id="dZDPK4GAm-LJGT4-wQQH-75" value="4" style="rounded=1;whiteSpace=wrap;html=1;rotation=-90;" vertex="1" parent="1">
          <mxGeometry x="70" y="970.5" width="70" height="45" as="geometry" />
        </mxCell>
        <mxCell id="dZDPK4GAm-LJGT4-wQQH-76" value="5" style="rounded=1;whiteSpace=wrap;html=1;rotation=-90;" vertex="1" parent="1">
          <mxGeometry x="70" y="1047" width="70" height="45" as="geometry" />
        </mxCell>
        <mxCell id="dZDPK4GAm-LJGT4-wQQH-77" value="6" style="rounded=1;whiteSpace=wrap;html=1;rotation=-90;" vertex="1" parent="1">
          <mxGeometry x="70" y="1122.5" width="70" height="45" as="geometry" />
        </mxCell>
        <mxCell id="dZDPK4GAm-LJGT4-wQQH-78" value="1" style="rounded=1;whiteSpace=wrap;html=1;rotation=-90;" vertex="1" parent="1">
          <mxGeometry x="349" y="740" width="70" height="69.5" as="geometry" />
        </mxCell>
        <mxCell id="dZDPK4GAm-LJGT4-wQQH-79" value="" style="endArrow=none;html=1;rounded=0;strokeWidth=3;entryX=0;entryY=0.81;entryDx=0;entryDy=0;entryPerimeter=0;" edge="1" parent="1" target="dZDPK4GAm-LJGT4-wQQH-69">
          <mxGeometry width="50" height="50" relative="1" as="geometry">
            <mxPoint x="140" y="1248" as="sourcePoint" />
            <mxPoint x="170.00000000000006" y="741.28" as="targetPoint" />
          </mxGeometry>
        </mxCell>
        <mxCell id="dZDPK4GAm-LJGT4-wQQH-80" value="2" style="rounded=1;whiteSpace=wrap;html=1;rotation=-90;" vertex="1" parent="1">
          <mxGeometry x="349" y="819" width="70" height="69.5" as="geometry" />
        </mxCell>
        <mxCell id="dZDPK4GAm-LJGT4-wQQH-81" value="3" style="rounded=1;whiteSpace=wrap;html=1;rotation=-90;" vertex="1" parent="1">
          <mxGeometry x="349" y="898" width="70" height="69.5" as="geometry" />
        </mxCell>
        <mxCell id="dZDPK4GAm-LJGT4-wQQH-82" value="4" style="rounded=1;whiteSpace=wrap;html=1;rotation=-90;" vertex="1" parent="1">
          <mxGeometry x="349" y="977" width="70" height="69.5" as="geometry" />
        </mxCell>
        <mxCell id="dZDPK4GAm-LJGT4-wQQH-83" value="6" style="rounded=1;whiteSpace=wrap;html=1;rotation=-90;" vertex="1" parent="1">
          <mxGeometry x="349" y="1135" width="70" height="69.5" as="geometry" />
        </mxCell>
        <mxCell id="dZDPK4GAm-LJGT4-wQQH-84" value="5" style="rounded=1;whiteSpace=wrap;html=1;rotation=-90;" vertex="1" parent="1">
          <mxGeometry x="349" y="1056" width="70" height="69.5" as="geometry" />
        </mxCell>
        <mxCell id="dZDPK4GAm-LJGT4-wQQH-85" value="7" style="rounded=1;whiteSpace=wrap;html=1;rotation=-90;" vertex="1" parent="1">
          <mxGeometry x="349" y="1214" width="70" height="69.5" as="geometry" />
        </mxCell>
        <mxCell id="dZDPK4GAm-LJGT4-wQQH-94" value="" style="group" vertex="1" connectable="0" parent="1">
          <mxGeometry x="40" y="1270.01" width="99.99000000000001" height="99.99000000000001" as="geometry" />
        </mxCell>
        <mxCell id="dZDPK4GAm-LJGT4-wQQH-95" value="" style="whiteSpace=wrap;html=1;aspect=fixed;" vertex="1" parent="dZDPK4GAm-LJGT4-wQQH-94">
          <mxGeometry width="99.99" height="99.99" as="geometry" />
        </mxCell>
        <mxCell id="dZDPK4GAm-LJGT4-wQQH-96" value="" style="rounded=1;whiteSpace=wrap;html=1;" vertex="1" parent="dZDPK4GAm-LJGT4-wQQH-94">
          <mxGeometry x="1" y="0.9900000000000091" width="98" height="98.01" as="geometry" />
        </mxCell>
        <mxCell id="dZDPK4GAm-LJGT4-wQQH-97" value="" style="ellipse;whiteSpace=wrap;html=1;aspect=fixed;" vertex="1" parent="dZDPK4GAm-LJGT4-wQQH-94">
          <mxGeometry x="1" y="19.990000000000002" width="9.99" height="9.99" as="geometry" />
        </mxCell>
        <mxCell id="dZDPK4GAm-LJGT4-wQQH-98" value="" style="ellipse;whiteSpace=wrap;html=1;aspect=fixed;" vertex="1" parent="dZDPK4GAm-LJGT4-wQQH-94">
          <mxGeometry x="1" y="69.99000000000001" width="9.99" height="9.99" as="geometry" />
        </mxCell>
        <mxCell id="dZDPK4GAm-LJGT4-wQQH-99" value="" style="rounded=0;whiteSpace=wrap;html=1;" vertex="1" parent="1">
          <mxGeometry x="40" y="1310" width="40" height="20.88" as="geometry" />
        </mxCell>
        <mxCell id="dZDPK4GAm-LJGT4-wQQH-112" value="" style="rounded=1;whiteSpace=wrap;html=1;strokeWidth=2;" vertex="1" parent="1">
          <mxGeometry x="173" y="730" width="145" height="50" as="geometry" />
        </mxCell>
        <mxCell id="dZDPK4GAm-LJGT4-wQQH-113" value="8" style="rounded=1;whiteSpace=wrap;html=1;rotation=-90;" vertex="1" parent="1">
          <mxGeometry x="349" y="1293" width="70" height="69.5" as="geometry" />
        </mxCell>
        <mxCell id="dZDPK4GAm-LJGT4-wQQH-116" value="" style="rounded=0;whiteSpace=wrap;html=1;" vertex="1" parent="1">
          <mxGeometry x="49.99" y="1185" width="87" height="60" as="geometry" />
        </mxCell>
        <mxCell id="dZDPK4GAm-LJGT4-wQQH-108" value="" style="group" vertex="1" connectable="0" parent="1">
          <mxGeometry x="50" y="1215" width="40" height="30" as="geometry" />
        </mxCell>
        <mxCell id="dZDPK4GAm-LJGT4-wQQH-109" value="" style="rounded=0;whiteSpace=wrap;html=1;" vertex="1" parent="dZDPK4GAm-LJGT4-wQQH-108">
          <mxGeometry width="40" height="30" as="geometry" />
        </mxCell>
        <mxCell id="dZDPK4GAm-LJGT4-wQQH-110" value="" style="ellipse;whiteSpace=wrap;html=1;" vertex="1" parent="dZDPK4GAm-LJGT4-wQQH-108">
          <mxGeometry x="1.0909090909090908" y="0.5" width="29.090909090909093" height="29" as="geometry" />
        </mxCell>
        <mxCell id="dZDPK4GAm-LJGT4-wQQH-111" value="" style="rounded=1;whiteSpace=wrap;html=1;" vertex="1" parent="dZDPK4GAm-LJGT4-wQQH-108">
          <mxGeometry x="31.636363636363637" y="0.5" width="7.272727272727273" height="29" as="geometry" />
        </mxCell>
        <mxCell id="dZDPK4GAm-LJGT4-wQQH-118" value="" style="ellipse;whiteSpace=wrap;html=1;aspect=fixed;" vertex="1" parent="1">
          <mxGeometry x="117.99000000000001" y="1193" width="17" height="17" as="geometry" />
        </mxCell>
        <mxCell id="dZDPK4GAm-LJGT4-wQQH-121" value="" style="whiteSpace=wrap;html=1;aspect=fixed;" vertex="1" parent="1">
          <mxGeometry x="95" y="1191" width="20" height="20" as="geometry" />
        </mxCell>
        <mxCell id="dZDPK4GAm-LJGT4-wQQH-122" value="" style="rounded=0;whiteSpace=wrap;html=1;" vertex="1" parent="1">
          <mxGeometry x="52" y="1190.5" width="40" height="20" as="geometry" />
        </mxCell>
        <mxCell id="dZDPK4GAm-LJGT4-wQQH-145" value="" style="group" vertex="1" connectable="0" parent="1">
          <mxGeometry x="250" y="730" width="64.70285450100789" height="43.503540945790064" as="geometry" />
        </mxCell>
        <mxCell id="dZDPK4GAm-LJGT4-wQQH-87" value="" style="rounded=0;whiteSpace=wrap;html=1;rotation=0;container=0;" vertex="1" parent="dZDPK4GAm-LJGT4-wQQH-145">
          <mxGeometry x="10" width="30" height="14" as="geometry" />
        </mxCell>
        <mxCell id="dZDPK4GAm-LJGT4-wQQH-88" value="" style="rounded=0;whiteSpace=wrap;html=1;rotation=0;container=0;" vertex="1" parent="dZDPK4GAm-LJGT4-wQQH-145">
          <mxGeometry y="17" width="50" height="5.91" as="geometry" />
        </mxCell>
        <mxCell id="dZDPK4GAm-LJGT4-wQQH-89" value="" style="rounded=0;whiteSpace=wrap;html=1;rotation=0;container=0;" vertex="1" parent="dZDPK4GAm-LJGT4-wQQH-145">
          <mxGeometry y="26.710000000000036" width="64.35662546256201" height="16.79354094579008" as="geometry" />
        </mxCell>
        <mxCell id="dZDPK4GAm-LJGT4-wQQH-90" value="" style="rounded=0;whiteSpace=wrap;html=1;rotation=0;container=0;" vertex="1" parent="dZDPK4GAm-LJGT4-wQQH-145">
          <mxGeometry x="18" width="15.277537201795134" height="16.79354094579008" as="geometry" />
        </mxCell>
        <mxCell id="dZDPK4GAm-LJGT4-wQQH-92" value="" style="rounded=1;whiteSpace=wrap;html=1;rotation=-90;container=0;" vertex="1" parent="dZDPK4GAm-LJGT4-wQQH-145">
          <mxGeometry x="50" y="9.839999999999918" width="18.333044642154164" height="11.072664359861593" as="geometry" />
        </mxCell>
        <mxCell id="dZDPK4GAm-LJGT4-wQQH-93" value="" style="ellipse;whiteSpace=wrap;html=1;rotation=-90;container=0;" vertex="1" parent="dZDPK4GAm-LJGT4-wQQH-145">
          <mxGeometry x="55.35000000000002" y="9.419999999999959" width="7.638768600897569" height="5.167243367935409" as="geometry" />
        </mxCell>
        <mxCell id="dZDPK4GAm-LJGT4-wQQH-141" value="" style="endArrow=none;dashed=1;html=1;rounded=0;entryX=1;entryY=0.5;entryDx=0;entryDy=0;" edge="1" parent="dZDPK4GAm-LJGT4-wQQH-145" target="dZDPK4GAm-LJGT4-wQQH-89">
          <mxGeometry width="50" height="50" relative="1" as="geometry">
            <mxPoint y="35.610000000000014" as="sourcePoint" />
            <mxPoint x="61.91463994961032" y="34.60682814302197" as="targetPoint" />
          </mxGeometry>
        </mxCell>
        <mxCell id="dZDPK4GAm-LJGT4-wQQH-142" value="" style="endArrow=none;dashed=1;html=1;rounded=0;entryX=1;entryY=0.25;entryDx=0;entryDy=0;" edge="1" parent="dZDPK4GAm-LJGT4-wQQH-145" target="dZDPK4GAm-LJGT4-wQQH-89">
          <mxGeometry width="50" height="50" relative="1" as="geometry">
            <mxPoint y="31.610000000000014" as="sourcePoint" />
            <mxPoint x="61.91463994961032" y="30.60682814302197" as="targetPoint" />
          </mxGeometry>
        </mxCell>
        <mxCell id="dZDPK4GAm-LJGT4-wQQH-143" value="" style="endArrow=none;dashed=1;html=1;rounded=0;entryX=1;entryY=0.5;entryDx=0;entryDy=0;" edge="1" parent="dZDPK4GAm-LJGT4-wQQH-145">
          <mxGeometry width="50" height="50" relative="1" as="geometry">
            <mxPoint x="0.36000000000001364" y="39.5" as="sourcePoint" />
            <mxPoint x="64.36000000000001" y="38.889999999999986" as="targetPoint" />
          </mxGeometry>
        </mxCell>
        <mxCell id="dZDPK4GAm-LJGT4-wQQH-147" value="" style="group" vertex="1" connectable="0" parent="1">
          <mxGeometry x="176" y="730" width="64.70285450100789" height="43.503540945790064" as="geometry" />
        </mxCell>
        <mxCell id="dZDPK4GAm-LJGT4-wQQH-148" value="" style="rounded=0;whiteSpace=wrap;html=1;rotation=0;container=0;" vertex="1" parent="dZDPK4GAm-LJGT4-wQQH-147">
          <mxGeometry x="10" width="30" height="14" as="geometry" />
        </mxCell>
        <mxCell id="dZDPK4GAm-LJGT4-wQQH-149" value="" style="rounded=0;whiteSpace=wrap;html=1;rotation=0;container=0;" vertex="1" parent="dZDPK4GAm-LJGT4-wQQH-147">
          <mxGeometry y="17" width="50" height="5.91" as="geometry" />
        </mxCell>
        <mxCell id="dZDPK4GAm-LJGT4-wQQH-150" value="" style="rounded=0;whiteSpace=wrap;html=1;rotation=0;container=0;" vertex="1" parent="dZDPK4GAm-LJGT4-wQQH-147">
          <mxGeometry y="26.710000000000036" width="64.35662546256201" height="16.79354094579008" as="geometry" />
        </mxCell>
        <mxCell id="dZDPK4GAm-LJGT4-wQQH-151" value="" style="rounded=0;whiteSpace=wrap;html=1;rotation=0;container=0;" vertex="1" parent="dZDPK4GAm-LJGT4-wQQH-147">
          <mxGeometry x="18" width="15.277537201795134" height="16.79354094579008" as="geometry" />
        </mxCell>
        <mxCell id="dZDPK4GAm-LJGT4-wQQH-152" value="" style="rounded=1;whiteSpace=wrap;html=1;rotation=-90;container=0;" vertex="1" parent="dZDPK4GAm-LJGT4-wQQH-147">
          <mxGeometry x="50" y="9.839999999999918" width="18.333044642154164" height="11.072664359861593" as="geometry" />
        </mxCell>
        <mxCell id="dZDPK4GAm-LJGT4-wQQH-153" value="" style="ellipse;whiteSpace=wrap;html=1;rotation=-90;container=0;" vertex="1" parent="dZDPK4GAm-LJGT4-wQQH-147">
          <mxGeometry x="55.35000000000002" y="9.419999999999959" width="7.638768600897569" height="5.167243367935409" as="geometry" />
        </mxCell>
        <mxCell id="dZDPK4GAm-LJGT4-wQQH-154" value="" style="endArrow=none;dashed=1;html=1;rounded=0;entryX=1;entryY=0.5;entryDx=0;entryDy=0;" edge="1" parent="dZDPK4GAm-LJGT4-wQQH-147" target="dZDPK4GAm-LJGT4-wQQH-150">
          <mxGeometry width="50" height="50" relative="1" as="geometry">
            <mxPoint y="35.610000000000014" as="sourcePoint" />
            <mxPoint x="61.91463994961032" y="34.60682814302197" as="targetPoint" />
          </mxGeometry>
        </mxCell>
        <mxCell id="dZDPK4GAm-LJGT4-wQQH-155" value="" style="endArrow=none;dashed=1;html=1;rounded=0;entryX=1;entryY=0.25;entryDx=0;entryDy=0;" edge="1" parent="dZDPK4GAm-LJGT4-wQQH-147" target="dZDPK4GAm-LJGT4-wQQH-150">
          <mxGeometry width="50" height="50" relative="1" as="geometry">
            <mxPoint y="31.610000000000014" as="sourcePoint" />
            <mxPoint x="61.91463994961032" y="30.60682814302197" as="targetPoint" />
          </mxGeometry>
        </mxCell>
        <mxCell id="dZDPK4GAm-LJGT4-wQQH-156" value="" style="endArrow=none;dashed=1;html=1;rounded=0;entryX=1;entryY=0.5;entryDx=0;entryDy=0;" edge="1" parent="dZDPK4GAm-LJGT4-wQQH-147">
          <mxGeometry width="50" height="50" relative="1" as="geometry">
            <mxPoint x="0.36000000000001364" y="39.5" as="sourcePoint" />
            <mxPoint x="64.36000000000001" y="38.889999999999986" as="targetPoint" />
          </mxGeometry>
        </mxCell>
      </root>
    </mxGraphModel>
  </diagram>
</mxfile>
